<?xml version="1.0" encoding="UTF-8"?>
<svg width="8px" height="16px" viewBox="0 0 8 16" version="1.1" xmlns="http://www.w3.org/2000/svg" xmlns:xlink="http://www.w3.org/1999/xlink">
    <!-- Generator: Sketch 48.2 (47327) - http://www.bohemiancoding.com/sketch -->
    <title>toilet</title>
    <desc>Created with Sketch.</desc>
    <defs></defs>
    <g id="Trends-Top-Mobile-Copy" stroke="none" stroke-width="1" fill="none" fill-rule="evenodd" transform="translate(-167.000000, -1524.000000)">
        <g id="Group-22" transform="translate(167.000000, 1524.000000)" fill="#CF1807" fill-rule="nonzero">
            <g id="Group-23">
                <g id="toilet">
                    <g id="Group">
                        <path d="M6.23517538,4.96812308 C6.11618462,4.64772923 5.79460923,4.46670769 5.46766769,4.46670769 C5.30446769,4.46670769 5.28940308,4.47089231 5.19222154,4.47089231 L2.54823385,4.47089231 C2.45100308,4.47089231 2.36460308,4.47089231 2.27264,4.47089231 C1.89927385,4.47089231 1.62427077,4.64768 1.50528,4.96812308 L0.0935384615,9.26134154 C-0.04096,9.62358154 0.1408,10.0274215 0.499446154,10.1632492 C0.858141538,10.2991262 1.25794462,10.1155446 1.39249231,9.75335385 L1.76782769,8.74279385 C1.76782769,8.74279385 1.79460923,8.64088615 1.79460923,9.08578462 L1.79460923,15.0446277 C1.79460923,15.5655877 2.21277538,15.9878892 2.72866462,15.9878892 C3.24455385,15.9878892 3.66272,15.5655877 3.66272,15.0446277 L3.66272,11.1517046 C3.66272,11.1517046 3.65819077,11.1172923 3.69442462,11.1172923 C3.78205538,11.1172923 3.95746462,11.1172923 4.04514462,11.1172923 C4.07975385,11.1172923 4.07783385,11.1517046 4.07783385,11.1517046 L4.07783385,15.0446277 C4.07783385,15.5655877 4.496,15.9878892 5.01188923,15.9878892 C5.52777846,15.9878892 5.94594462,15.5655877 5.94594462,15.0446277 L5.94594462,9.08578462 C5.94594462,8.63374769 5.98518154,8.77617231 5.98518154,8.77617231 L6.34811077,9.75345231 C6.48256,10.1156923 6.88246154,10.2992246 7.24115692,10.1633477 C7.59980308,10.0274215 7.78161231,9.62368 7.64706462,9.26148923 L6.23517538,4.96812308 Z" id="Shape"></path>
                        <ellipse id="Oval" cx="3.88878769" cy="2.00984615" rx="2.00546462" ry="1.98483692"></ellipse>
                    </g>
                </g>
            </g>
        </g>
    </g>
</svg>