<?xml version="1.0" encoding="UTF-8"?>
<svg width="93px" height="104px" viewBox="0 0 93 104" version="1.1" xmlns="http://www.w3.org/2000/svg" xmlns:xlink="http://www.w3.org/1999/xlink">
    <!-- Generator: Sketch 48.2 (47327) - http://www.bohemiancoding.com/sketch -->
    <title>Group 26</title>
    <desc>Created with Sketch.</desc>
    <defs>
        <path d="M52.2500648,19.2489011 C53.7695272,19.2489011 55.0000777,20.4793009 55.0000777,21.9995265 C55.0000777,23.5193894 53.7695272,24.749245 52.2500648,24.749245 L24.750298,24.749245 C23.2297474,24.749245 21.9997409,23.5193894 21.9997409,21.9995265 C21.9997409,20.4793009 23.2297474,19.2489011 24.750298,19.2489011 L52.2500648,19.2489011 Z M53.8397148,27.4989635 L23.157202,27.4989635 C9.53372888,37.4359285 0,58.4958232 0,71.8707978 C0,89.859046 17.2360503,87.9407178 38.4998186,87.9407178 C59.7630429,87.9407178 77,89.8588646 77,71.8707978 C77,58.4958232 67.4664525,37.4359285 53.8397148,27.4989635 Z M23.157202,16.4988199 L53.8397148,16.4988199 C53.8397148,16.4988199 65.9997668,5.89061234 60.4995595,1.25031501 C55.0000777,-3.39034505 42.7970426,6.4064226 38.4998186,6.06291183 C34.2029574,6.40660397 21.9997409,-3.39034505 16.5000777,1.25031501 C10.9998705,5.89061234 23.157202,16.4988199 23.157202,16.4988199 Z" id="path-1"></path>
        <filter x="-16.9%" y="-12.5%" width="133.8%" height="129.5%" filterUnits="objectBoundingBox" id="filter-2">
            <feOffset dx="0" dy="2" in="SourceAlpha" result="shadowOffsetOuter1"></feOffset>
            <feGaussianBlur stdDeviation="4" in="shadowOffsetOuter1" result="shadowBlurOuter1"></feGaussianBlur>
            <feColorMatrix values="0 0 0 0 0   0 0 0 0 0   0 0 0 0 0  0 0 0 0.432291667 0" type="matrix" in="shadowBlurOuter1"></feColorMatrix>
        </filter>
    </defs>
    <g id="Trends-Top-Mobile-Copy" stroke="none" stroke-width="1" fill="none" fill-rule="evenodd" transform="translate(-113.000000, -3771.000000)">
        <g id="Group-14-Copy" transform="translate(51.000000, 3777.000000)">
            <g id="Group-28" transform="translate(70.000000, 0.000000)">
                <g id="Group-26">
                    <g id="money-bag-black-shape" fill-rule="nonzero">
                        <g id="Shape">
                            <use fill="black" fill-opacity="1" filter="url(#filter-2)" xlink:href="#path-1"></use>
                            <use fill="#EEEEEE" fill-rule="evenodd" xlink:href="#path-1"></use>
                        </g>
                    </g>
                    <g id="Group-27" transform="translate(20.000000, 38.000000)">
                        <path d="M19.3457482,0 C8.66180001,0 0,8.34487446 0,18.6379089 C0,28.9309434 8.66180001,37.2758179 19.3457482,37.2758179 C30.0296964,37.2758179 38.6914964,28.9309434 38.6914964,18.6379089 C38.6914964,8.34487446 30.0296964,0 19.3457482,0 Z" id="Path" fill="#CF1807"></path>
                        <path d="M26.096857,28.0795822 C25.5156885,28.3326896 24.9106362,28.5474474 24.2896616,28.7085157 C21.9331425,29.3374493 19.5766234,29.360459 17.2280655,28.6241466 C14.3938735,27.7421056 12.5150272,25.8783147 11.3924962,23.2705415 C11.1775434,22.7643266 11.0342416,22.2351021 10.8670561,21.7058775 L8.64587758,21.7058775 C8.27170056,21.7058775 7.97713567,21.4144205 7.97713567,21.0616041 L7.97713567,19.6196589 C7.97713567,19.2591726 8.27966178,18.9753855 8.64587758,18.9753855 L10.4849178,18.9753855 C10.4849178,18.5765496 10.4849178,18.2007234 10.4849178,17.8018875 L8.64587758,17.8018875 C8.27170056,17.8018875 7.97713567,17.5104305 7.97713567,17.1576141 L7.97713567,15.7156689 C7.97713567,15.3551826 8.27966178,15.0713955 8.64587758,15.0713955 L10.9864743,15.0713955 L11.0660864,14.8489678 C11.6950223,12.9238175 12.7777473,11.2747844 14.4416408,10.0322572 C15.7632022,9.0428373 17.2917552,8.49827288 18.9317651,8.24516548 C21.2644006,7.88467917 23.5253851,8.19147603 25.7147188,9.01982754 C25.8580206,9.07351699 25.9933612,9.13487636 26.1287019,9.21157557 C26.6541419,9.51070251 26.7894826,9.88652865 26.5586074,10.4310931 C26.3118098,10.9986673 26.0650122,11.5739114 25.7943309,12.1338156 C25.5634557,12.6170207 25.2450072,12.7704191 24.7036447,12.6553703 C23.9632519,12.4943019 23.2387815,12.2718742 22.4983886,12.1261457 C20.9379908,11.8193488 19.3855543,11.804009 17.8649625,12.3792531 C16.5593236,12.877798 15.7632022,13.8365382 15.2218397,15.0330459 C15.2138785,15.0483857 15.2138785,15.0637256 15.2138785,15.0790654 L19.7597313,15.0790654 C20.1339083,15.0790654 20.4284732,15.3705224 20.4284732,15.7233388 L20.4284732,17.165284 C20.4284732,17.5257703 20.1259471,17.8095574 19.7597313,17.8095574 L14.5690202,17.8095574 C14.561059,18.1930535 14.5690202,18.5765496 14.5690202,18.9830554 L19.7676925,18.9830554 C20.1418695,18.9830554 20.4364344,19.2745124 20.4364344,19.6273288 L20.4364344,21.069274 C20.4364344,21.4297603 20.1339083,21.7135474 19.7676925,21.7135474 L15.0228094,21.7135474 C15.5960167,23.2935512 16.5274787,24.5130687 18.2789456,25.0422933 C19.6801191,25.464139 21.0892539,25.4411292 22.5063498,25.1573421 C23.2387815,25.0116136 23.9552907,24.7968558 24.6877223,24.6357875 C25.2609296,24.5130687 25.5714169,24.6587972 25.8102533,25.165012 C26.0809346,25.7325862 26.3356934,26.3078303 26.5745298,26.8907443 C26.7974438,27.412299 26.6541419,27.8341447 26.096857,28.0795822 Z" id="Path" fill="#FFFFFF"></path>
                    </g>
                </g>
            </g>
        </g>
    </g>
</svg>