<?xml version="1.0" encoding="UTF-8"?>
<svg width="47px" height="46px" viewBox="0 0 47 46" version="1.1" xmlns="http://www.w3.org/2000/svg" xmlns:xlink="http://www.w3.org/1999/xlink">
    <!-- Generator: Sketch 48.2 (47327) - http://www.bohemiancoding.com/sketch -->
    <title>computer</title>
    <desc>Created with Sketch.</desc>
    <defs></defs>
    <g id="Trends-Top-Copy" stroke="none" stroke-width="1" fill="none" fill-rule="evenodd" transform="translate(-265.000000, -1098.000000)">
        <g id="Group-6" transform="translate(264.000000, 1098.000000)" fill-rule="nonzero">
            <g id="computer" transform="translate(1.000000, 0.000000)">
                <rect id="Rectangle-path" fill="#E6877F" x="7.27272727" y="7.33590909" width="32" height="22.4567273"></rect>
                <g id="Group" fill="#474A4A">
                    <path d="M39.2727273,31.2464545 L7.27272727,31.2464545 C6.46936364,31.2464545 5.81818182,30.5952727 5.81818182,29.7919091 L5.81818182,7.33536364 C5.81818182,6.532 6.46936364,5.88081818 7.27272727,5.88081818 L39.2727273,5.88081818 C40.0760909,5.88081818 40.7272727,6.532 40.7272727,7.33536364 L40.7272727,29.7919091 C40.7272727,30.5952727 40.0760909,31.2464545 39.2727273,31.2464545 Z M8.72727273,28.3373636 L37.8181818,28.3373636 L37.8181818,8.78990909 L8.72727273,8.78990909 L8.72727273,28.3373636 Z" id="Shape"></path>
                    <path d="M25.3818182,35.4643636 L21.1636364,35.4643636 C20.3602727,35.4643636 19.7090909,34.8131818 19.7090909,34.0098182 C19.7090909,33.2064545 20.3602727,32.5552727 21.1636364,32.5552727 L25.3818182,32.5552727 C26.1851818,32.5552727 26.8363636,33.2064545 26.8363636,34.0098182 C26.8363636,34.8131818 26.1851818,35.4643636 25.3818182,35.4643636 Z" id="Shape"></path>
                    <path d="M45.0909091,8.21609091 C45.8942727,8.21609091 46.5454545,7.56490909 46.5454545,6.76154545 L46.5454545,1.51727273 C46.5454545,0.713909091 45.8942727,0.0627272727 45.0909091,0.0627272727 L1.45454545,0.0627272727 C0.651181818,0.0627272727 0,0.713909091 0,1.51727273 L0,38.9523636 C0,39.7557273 0.651181818,40.4069091 1.45454545,40.4069091 L15.6839091,40.4069091 L15.6839091,43.0281818 L12.4363636,43.0281818 C11.633,43.0281818 10.9818182,43.6793636 10.9818182,44.4827273 C10.9818182,45.2860909 11.633,45.9372727 12.4363636,45.9372727 L17.1384545,45.9372727 L29.407,45.9372727 L34.1090909,45.9372727 C34.9124545,45.9372727 35.5636364,45.2860909 35.5636364,44.4827273 C35.5636364,43.6793636 34.9124545,43.0281818 34.1090909,43.0281818 L30.8615455,43.0281818 L30.8615455,40.4069091 L45.0909091,40.4069091 C45.8942727,40.4069091 46.5454545,39.7557273 46.5454545,38.9523636 L46.5454545,14.7128182 C46.5454545,13.9094545 45.8942727,13.2582727 45.0909091,13.2582727 C44.2875455,13.2582727 43.6363636,13.9094545 43.6363636,14.7128182 L43.6363636,37.4977273 L29.407,37.4977273 C28.6036364,37.4977273 27.9524545,38.1489091 27.9524545,38.9522727 L27.9524545,43.0280909 L18.593,43.0280909 L18.593,40.4068182 L22.1083636,40.4068182 C22.9117273,40.4068182 23.5629091,39.7556364 23.5629091,38.9522727 C23.5629091,38.1489091 22.9117273,37.4977273 22.1083636,37.4977273 L2.90909091,37.4977273 L2.90909091,2.97181818 L43.6363636,2.97181818 L43.6363636,6.76145455 C43.6363636,7.56490909 44.2875455,8.21609091 45.0909091,8.21609091 Z" id="Shape"></path>
                </g>
            </g>
        </g>
    </g>
</svg>