<?xml version="1.0" encoding="UTF-8"?>
<svg width="39px" height="46px" viewBox="0 0 39 46" version="1.1" xmlns="http://www.w3.org/2000/svg" xmlns:xlink="http://www.w3.org/1999/xlink">
    <!-- Generator: Sketch 48.2 (47327) - http://www.bohemiancoding.com/sketch -->
    <title>usericon</title>
    <desc>Created with Sketch.</desc>
    <defs></defs>
    <g id="Trends-Top-Copy" stroke="none" stroke-width="1" fill="none" fill-rule="evenodd" transform="translate(-272.000000, -734.000000)">
        <g id="user" transform="translate(272.000000, 734.000000)" fill-rule="nonzero">
            <path d="M31.9652383,26.0262969 L28.8804531,31.3693945 L25.795668,26.0262969 C22.5429648,27.345293 20.2479062,30.5333086 20.2479062,34.2592188 L20.2479062,44.7665352 L28.880543,44.7665352 L37.5131797,44.7665352 L37.5131797,34.2592188 C37.5130898,30.5333984 35.2180313,27.345293 31.9652383,26.0262969 Z" id="Shape" fill="#E6877F"></path>
            <g id="Group" transform="translate(2.335938, 0.000000)" fill="#474A4A">
                <path d="M35.1771523,46 L17.9117891,46 C17.2305938,46 16.6784141,45.4477305 16.6784141,44.766625 L16.6784141,34.2593086 C16.6784141,30.1198477 19.1582812,26.439668 22.9961367,24.8833047 C23.5664648,24.6520469 24.2199883,24.8765664 24.5277031,25.4096094 L26.5444258,28.9026445 L28.5611484,25.4096094 C28.8687734,24.8767461 29.5222969,24.6520469 30.0928047,24.8833047 C33.93075,26.4394883 36.4105273,30.1198477 36.4105273,34.2593086 L36.4105273,44.766625 C36.4105273,45.4477305 35.8583477,46 35.1771523,46 Z M19.1450742,43.53325 L33.9435977,43.53325 L33.9435977,34.2593086 C33.9435977,31.4887969 32.4740234,28.9900625 30.1237109,27.6363867 L27.6123984,31.9861719 C27.3921016,32.3677383 26.9850195,32.6028594 26.5443359,32.6028594 C26.1036523,32.6028594 25.6964805,32.3677383 25.4762734,31.9861719 L22.9649609,27.6363867 C20.6146484,28.9901523 19.1450742,31.488707 19.1450742,34.2593086 L19.1450742,43.53325 Z" id="Shape"></path>
                <path d="M26.5444258,24.3552031 C22.8548125,24.3552031 19.662125,21.8553008 18.7803086,18.2758359 C18.6174219,17.6144961 19.0214492,16.9462383 19.6827891,16.7831719 C20.3441289,16.620375 21.0123867,17.0243125 21.1754531,17.6857422 C21.7851328,20.1601289 23.9928633,21.8882734 26.5445156,21.8882734 C29.594082,21.8882734 32.0751172,19.4073281 32.0751172,16.3576719 C32.0751172,13.3080156 29.594082,10.8270703 26.5445156,10.8270703 C25.4900195,10.8270703 24.4632852,11.1265195 23.5756289,11.6928945 C23.0016172,12.0593672 22.2390234,11.8908203 21.8724609,11.3166289 C21.5059883,10.7425273 21.674625,9.97993359 22.2487266,9.61346094 C23.5334023,8.79372656 25.0188789,8.36032031 26.5444258,8.36032031 C30.9541367,8.36032031 34.5417773,11.9479609 34.5417773,16.3576719 C34.5417773,20.7673828 30.9541367,24.3552031 26.5444258,24.3552031 Z" id="Shape"></path>
                <path d="M9.64814062,19.2103008 C4.35185156,19.2103008 0.0430351562,14.9014844 0.0430351562,9.60519531 C0.0430351562,4.30890625 4.35185156,0 9.64814062,0 C14.9444297,0 19.2532461,4.30890625 19.2532461,9.60519531 C19.2532461,14.9014844 14.9444297,19.2103008 9.64814062,19.2103008 Z M9.64814062,2.46675 C5.71208594,2.46675 2.509875,5.66914062 2.509875,9.60519531 C2.509875,13.54125 5.71208594,16.7434609 9.64814062,16.7434609 C13.5841953,16.7434609 16.7864062,13.54125 16.7864062,9.60519531 C16.7864062,5.66914062 13.5841953,2.46675 9.64814062,2.46675 Z" id="Shape"></path>
            </g>
            <path d="M15.802168,21.5716641 L11.9840781,28.184793 L8.16598828,21.5716641 C4.14008984,23.2040352 1.2995,27.1501523 1.2995,31.7615625 L1.2995,44.7664453 L11.984168,44.7664453 L22.6688359,44.7664453 L22.6688359,31.7617422 C22.6685664,27.1501523 19.8279766,23.2042148 15.802168,21.5716641 Z" id="Shape" fill="#E6877F"></path>
            <path d="M22.6687461,46 L1.29941016,46 C0.618214844,46 0.0660351562,45.4477305 0.0660351562,44.766625 L0.0660351562,31.7617422 C0.0660351562,26.7582539 3.06349219,22.3097305 7.70239453,20.4286719 C8.27272266,20.1976836 8.92624609,20.4218437 9.23396094,20.9550664 L11.9838984,25.7181328 L14.7338359,20.9550664 C15.0414609,20.4222031 15.6948047,20.1972344 16.2654922,20.4286719 C20.9044844,22.3097305 23.9019414,26.7581641 23.9019414,31.7617422 L23.9019414,44.766625 C23.9021211,45.4477305 23.3499414,46 22.6687461,46 Z M2.53269531,43.53325 L21.4351914,43.53325 L21.4351914,31.7617422 C21.4351914,28.1264844 19.4531484,24.8582383 16.3045742,23.1681875 L13.0520508,28.8016602 C12.8317539,29.1832266 12.4246719,29.4183477 11.9839883,29.4183477 C11.5433047,29.4183477 11.1361328,29.1832266 10.9158359,28.8016602 L7.6633125,23.1681875 C4.51482812,24.8583281 2.53269531,28.1264844 2.53269531,31.7617422 L2.53269531,43.53325 Z" id="Shape" fill="#474A4A"></path>
        </g>
    </g>
</svg>