<?xml version="1.0" encoding="UTF-8"?>
<svg width="54px" height="46px" viewBox="0 0 54 46" version="1.1" xmlns="http://www.w3.org/2000/svg" xmlns:xlink="http://www.w3.org/1999/xlink">
    <!-- Generator: Sketch 48.2 (47327) - http://www.bohemiancoding.com/sketch -->
    <title>euro</title>
    <desc>Created with Sketch.</desc>
    <defs></defs>
    <g id="Trends-Top-Copy" stroke="none" stroke-width="1" fill="none" fill-rule="evenodd" transform="translate(-265.000000, -2169.000000)">
        <g id="euro" transform="translate(265.000000, 2169.000000)" fill-rule="nonzero">
            <rect id="Rectangle-path" fill="#E6877F" x="1.58953211" y="1.65093578" width="36.9847385" height="8.78083028"></rect>
            <path d="M38.5747982,12.0222477 L1.58953211,12.0222477 C0.71183945,12.0222477 0,11.3105138 0,10.4327156 L0,1.65093578 C0,0.773137615 0.71183945,0.0614036697 1.58953211,0.0614036697 L38.5747982,0.0614036697 C39.4525963,0.0614036697 40.1643303,0.773243119 40.1643303,1.65093578 L40.1643303,10.4326101 C40.1643303,11.3105138 39.4525963,12.0222477 38.5747982,12.0222477 Z M3.17916972,8.84307798 L36.9852661,8.84307798 L36.9852661,3.24046789 L3.17916972,3.24046789 L3.17916972,8.84307798 Z" id="Shape" fill="#474A4A"></path>
            <path d="M25.1653761,32.2846147 L1.58953211,32.2846147 L1.58953211,41.066289 L29.8622294,41.066289 C27.3145046,38.8869862 25.5782156,35.7893716 25.1653761,32.2846147 Z" id="Shape" fill="#E6877F"></path>
            <g id="Group" transform="translate(0.000000, 15.298165)" fill="#474A4A">
                <path d="M52.4288165,13.7805872 C51.5510183,13.7805872 50.8392844,14.4924266 50.8392844,15.3701193 C50.8392844,22.0371651 45.4151881,27.4612615 38.7481422,27.4612615 C35.6457798,27.4612615 32.8134037,26.2857294 30.670711,24.3582661 C30.6462339,24.3363211 30.6215459,24.3145872 30.5972798,24.2924312 C30.4729954,24.1788028 30.3512431,24.0625367 30.2317064,23.943844 C30.2173578,23.9297064 30.2027982,23.9156743 30.1884495,23.9012202 C30.0588899,23.771344 29.9320734,23.6384083 29.808422,23.5027294 C29.8052569,23.4992477 29.8018807,23.4957661 29.7987156,23.4922844 C28.7605505,22.3493532 27.9376147,21.0074404 27.3950046,19.5315367 C27.3510092,19.4110505 27.3110229,19.2887706 27.2708257,19.1669128 C27.2525734,19.111945 27.232633,19.0578211 27.2152248,19.0027477 C27.1615229,18.8317248 27.1119358,18.6592248 27.0658303,18.4854587 C27.0640367,18.4788119 27.0618211,18.4720596 27.060133,18.4653073 C26.9167523,17.9218532 26.8110367,17.365844 26.7444633,16.8003394 C26.7444633,16.7998119 26.7442523,16.7993899 26.7442523,16.7988624 C26.6887569,16.329789 26.657,15.8537523 26.657,15.3700138 C26.657,8.70296789 32.0810963,3.27887156 38.7482477,3.27887156 C41.8279266,3.27887156 44.7614817,4.43720642 47.0086239,6.54033486 C47.6493532,7.14023394 48.6552339,7.1068945 49.255344,6.46595413 C49.8554541,5.82501376 49.8219037,4.81913303 49.1809633,4.21923394 C46.3616697,1.58035321 42.686945,0.0991743119 38.8257936,0.0797614679 C38.8257936,0.0797614679 38.6604679,0.0797614679 38.5749037,0.0797614679 L1.58953211,0.0797614679 C0.71183945,0.0798669725 0,0.791706422 0,1.66950459 L0,10.4511789 C0,11.3289771 0.71183945,12.040711 1.58953211,12.040711 L17.8329128,12.040711 C18.710711,12.040711 19.422445,11.3288716 19.422445,10.4511789 C19.422445,9.57348624 18.7106055,8.86164679 17.8329128,8.86164679 L3.17916972,8.86164679 L3.17916972,3.2590367 L29.4585688,3.2590367 C25.8244633,6.05300917 23.4774083,10.442211 23.4774083,15.3700138 C23.4774083,15.3788761 23.4777248,15.387844 23.4777248,15.3967064 L1.58953211,15.3967064 C0.71183945,15.3967064 0,16.1085459 0,16.986344 L0,25.7680183 C0,26.6458165 0.71183945,27.3575505 1.58953211,27.3575505 L29.2987294,27.3575505 C31.9000505,29.4123578 35.1831422,30.6403257 38.7478257,30.6403257 C47.1679358,30.6403257 54.0181376,23.7900183 54.0181376,15.3700138 C54.0183486,14.4924266 53.3067202,13.7805872 52.4288165,13.7805872 Z M3.17916972,24.1784862 L3.17916972,18.5759817 L23.817133,18.5759817 C23.9235872,19.0723807 24.0543073,19.5598119 24.2078165,20.0371147 C24.2163624,20.0638073 24.2251193,20.0905 24.2338761,20.1170872 C24.2608853,20.1993807 24.288422,20.2814633 24.3166972,20.3630183 C24.3358991,20.4186193 24.3555229,20.4737982 24.3753578,20.5290826 C24.3938211,20.5801468 24.4122844,20.6311055 24.4311697,20.6818532 C24.4619771,20.7649908 24.4936284,20.8476009 24.5257018,20.9303165 C24.5339312,20.9511009 24.542055,20.9720963 24.5503899,20.9929862 C24.9959358,22.1189312 25.5737844,23.1880092 26.2746514,24.1783807 L3.17916972,24.1783807 L3.17916972,24.1784862 Z" id="Shape"></path>
                <path d="M44.6406789,16.8728211 C44.5804358,16.8065642 44.4950826,16.7688991 44.4056147,16.7688991 L42.9806697,16.7688991 C42.826633,16.7688991 42.6947523,16.8792569 42.6676376,17.030867 C42.5185596,17.8644587 42.3114541,18.5023394 42.0326055,18.9833349 C41.5287156,19.870945 40.8108624,20.3025642 39.8380046,20.3025642 C38.7710367,20.3025642 37.996,19.8915183 37.4664725,19.0419954 C37.1934266,18.6169174 36.984211,18.1157706 36.8422018,17.547945 L41.0294679,17.547945 C41.1696835,17.547945 41.2933349,17.4560505 41.3338486,17.3217431 L41.7103945,16.0729908 C41.7395138,15.9767706 41.7210505,15.8724266 41.6611239,15.7916101 C41.6011972,15.7107936 41.5064541,15.663211 41.4060138,15.663211 L36.628555,15.663211 C36.628344,15.6231193 36.628344,15.583133 36.628344,15.5431468 C36.628344,15.3106147 36.6326697,15.1035092 36.6414266,14.9171881 L41.0375917,14.9171881 C41.1785459,14.9171881 41.3026193,14.824344 41.3425,14.6891927 L41.710922,13.4404404 C41.7394083,13.3442202 41.7207339,13.2402982 41.6607018,13.1600092 C41.6007752,13.0797202 41.5063486,13.0323486 41.4060138,13.0323486 L36.9203807,13.0323486 C37.0700917,12.4716972 37.2780413,12.0123303 37.5507706,11.637156 C38.1502477,10.8245596 38.9117798,10.429445 39.8788349,10.429445 C40.6734954,10.429445 41.2636881,10.636867 41.686867,11.0672202 C42.1200688,11.4932477 42.4150596,12.0991606 42.5638211,12.8683945 C42.5929404,13.017789 42.7237661,13.1259312 42.8760092,13.1259312 L44.3091835,13.1259312 C44.3104495,13.1259312 44.3117156,13.1259312 44.3123486,13.1259312 C44.4880138,13.1259312 44.6302339,12.9835 44.6302339,12.8080459 C44.6302339,12.7833578 44.6273853,12.7591972 44.6221101,12.7363028 C44.5201927,11.5954817 44.0705321,10.5642798 43.2846284,9.67033945 C42.4691835,8.74422018 41.3178119,8.27472477 39.8625872,8.27472477 C38.1548899,8.27472477 36.7967294,8.9884633 35.8262982,10.3952615 C35.3022569,11.1495138 34.9267661,12.0357523 34.708055,13.0326651 L33.1127202,13.0326651 C32.9717661,13.0326651 32.8476927,13.1255092 32.8078119,13.2606606 L32.4393899,14.5094128 C32.4109037,14.605633 32.429578,14.709555 32.4896101,14.789844 C32.5495367,14.870133 32.6439633,14.9175046 32.7442982,14.9175046 L34.4962018,14.9175046 C34.4920872,15.0276514 34.4899771,15.1377982 34.4899771,15.2465734 C34.4899771,15.3858394 34.4927202,15.525211 34.4975734,15.6635275 L33.1129312,15.6635275 C32.9722936,15.6635275 32.8482202,15.756055 32.8082339,15.8909954 L32.4398119,17.1318349 C32.4112202,17.2279495 32.429789,17.3320826 32.4897156,17.4125826 C32.5496422,17.4929771 32.6441743,17.5403486 32.7445092,17.5403486 L34.6806239,17.5403486 C34.9354174,18.9987385 35.4703257,20.1644587 36.271633,21.0065963 C37.1815046,21.9751284 38.3222202,22.4661468 39.6623394,22.4661468 C41.2182156,22.4661468 42.4709771,21.8681468 43.3851743,20.6896606 C44.1383716,19.7239771 44.5881376,18.5220688 44.7223394,17.1175917 C44.7304633,17.0278073 44.7010275,16.939078 44.6406789,16.8728211 Z" id="Shape"></path>
            </g>
        </g>
    </g>
</svg>