<?xml version="1.0" encoding="UTF-8"?>
<svg width="48px" height="46px" viewBox="0 0 48 46" version="1.1" xmlns="http://www.w3.org/2000/svg" xmlns:xlink="http://www.w3.org/1999/xlink">
    <!-- Generator: Sketch 48.2 (47327) - http://www.bohemiancoding.com/sketch -->
    <title>map</title>
    <desc>Created with Sketch.</desc>
    <defs></defs>
    <g id="Trends-Top-Copy" stroke="none" stroke-width="1" fill="none" fill-rule="evenodd" transform="translate(-264.000000, -1792.000000)">
        <g id="map" transform="translate(264.000000, 1792.000000)" fill-rule="nonzero">
            <g id="Group" transform="translate(15.000000, 0.000000)" fill="#474A4A">
                <path d="M16.3225806,42.9576008 C15.5032056,42.9576008 14.8387097,42.2931048 14.8387097,41.4737298 L14.8387097,3.36857258 L9.19425,4.49752016 C8.39221774,4.6592621 7.6090121,4.13721774 7.44819758,3.33342339 C7.28747581,2.52990726 7.80859274,1.74809274 8.61229435,1.58737097 L16.0316492,0.103314516 C16.4673508,0.0159516129 16.9195605,0.129004032 17.2634476,0.410754032 C17.6072419,0.692504032 17.8065444,1.11364516 17.8065444,1.55825 L17.8065444,41.4734516 C17.8064516,42.2932903 17.1419556,42.9576008 16.3225806,42.9576008 Z" id="Shape"></path>
                <path d="M1.48387097,45.925621 C1.14378629,45.925621 0.810657258,45.8086734 0.543096774,45.589246 C0.199302419,45.307496 0,44.8863548 0,44.44175 L0,4.52654839 C0,3.70717339 0.664495968,3.04267742 1.48387097,3.04267742 C2.30324597,3.04267742 2.96774194,3.70717339 2.96774194,4.52654839 L2.96774194,42.6317984 L8.61220161,41.5028508 C9.41479032,41.3413871 10.1974395,41.8634315 10.358254,42.6669476 C10.5189758,43.4704637 9.99785887,44.2522782 9.19415726,44.413 L1.77480242,45.8970565 C1.67825806,45.9163468 1.58078629,45.925621 1.48387097,45.925621 Z" id="Shape"></path>
            </g>
            <polygon id="Shape" fill="#E6877F" points="46 4.97610258 31 2 31 42.0238974 46 45"></polygon>
            <path d="M46.5,46 C46.4020313,46 46.3035,45.9906026 46.2058125,45.9711566 L31.2058125,42.993489 C30.5045625,42.8542961 30,42.2433733 30,41.5336383 L30,1.48869501 C30,1.04264502 30.2014688,0.620228039 30.549,0.337469186 C30.8964375,0.0548033769 31.3535625,-0.0587095551 31.7941875,0.0290303587 L46.7941875,3.00669787 C47.4954375,3.14589078 48,3.75681365 48,4.46654861 L48,44.5114919 C48,44.9575419 47.7985312,45.3799589 47.451,45.6627177 C47.1805313,45.8827653 46.8437812,46 46.5,46 Z M33,40.3131882 L45,42.695378 L45,5.68681263 L33,3.30462279 L33,40.3131882 Z" id="Shape" fill="#474A4A"></path>
            <polygon id="Shape" fill="#E6877F" points="16 4.97610258 1 2 1 42.0238974 16 45"></polygon>
            <path d="M16.5,46 C16.4020313,46 16.3035,45.9906026 16.2058125,45.9711566 L1.2058125,42.993489 C0.5045625,42.8542961 0,42.2432802 0,41.5336383 L0,1.48869501 C0,1.04264502 0.20146875,0.620228039 0.549,0.337469186 C0.8964375,0.0548033769 1.35328125,-0.0587095551 1.7941875,0.0290303587 L16.7941875,3.00669787 C17.4954375,3.14589078 18,3.75681365 18,4.46654861 L18,44.5114919 C18,44.9575419 17.7985312,45.3799589 17.451,45.6627177 C17.1805312,45.8827653 16.8437812,46 16.5,46 Z M3,40.3131882 L15,42.695378 L15,5.68681263 L3,3.30462279 L3,40.3131882 Z" id="Shape" fill="#474A4A"></path>
        </g>
    </g>
</svg>