<?xml version="1.0" encoding="UTF-8"?>
<svg width="54px" height="46px" viewBox="0 0 54 46" version="1.1" xmlns="http://www.w3.org/2000/svg" xmlns:xlink="http://www.w3.org/1999/xlink">
    <!-- Generator: Sketch 48.2 (47327) - http://www.bohemiancoding.com/sketch -->
    <title>store</title>
    <desc>Created with Sketch.</desc>
    <defs></defs>
    <g id="Trends-Top-Copy" stroke="none" stroke-width="1" fill="none" fill-rule="evenodd" transform="translate(-265.000000, -1411.000000)">
        <g id="store" transform="translate(265.000000, 1411.000000)" fill-rule="nonzero">
            <path d="M47.6474009,1.67071171 L41.4929324,1.67071171 L31.5125901,1.67071171 L21.5323514,1.67071171 L11.552009,1.67071171 L5.39764414,1.67071171 C3.28475225,1.67071171 1.57187387,3.38359009 1.57187387,5.49648198 L1.57187387,15.989455 C1.57187387,18.7454144 3.80598198,20.9796261 6.56204505,20.9796261 C9.3180045,20.9796261 11.5522162,18.745518 11.5522162,15.989455 C11.5522162,18.7454144 13.7863243,20.9796261 16.5423874,20.9796261 C19.2983468,20.9796261 21.5325586,18.745518 21.5325586,15.989455 C21.5325586,18.7454144 23.7667703,20.9796261 26.5227297,20.9796261 C29.2786892,20.9796261 31.5129009,18.745518 31.5129009,15.989455 C31.5129009,18.7454144 33.7471126,20.9796261 36.5030721,20.9796261 C39.2590315,20.9796261 41.4932432,18.745518 41.4932432,15.989455 C41.4932432,18.7454144 43.727455,20.9796261 46.4834144,20.9796261 C49.2393739,20.9796261 51.4735856,18.745518 51.4735856,15.989455 L51.4735856,13.2716216 L51.4735856,8.73678829 L51.4735856,5.49637838 C51.4731712,3.38348649 49.7602928,1.67071171 47.6474009,1.67071171 Z" id="Shape" fill="#E6877F"></path>
            <path d="M47.6474009,0.0988378378 L5.39764414,0.0988378378 C2.42142342,0.0988378378 0,2.52005405 0,5.49637838 L0,15.989455 C0,18.3773108 1.28261261,20.4708288 3.19461712,21.6187568 L3.19461712,44.3292883 C3.19461712,45.1972793 3.89829279,45.9011622 4.76649099,45.9011622 L48.2783468,45.9011622 C49.1463378,45.9011622 49.8502207,45.1972793 49.8502207,44.3292883 L49.8502207,28.4670586 C49.8502207,27.5990676 49.1463378,26.8951847 48.2783468,26.8951847 C47.4103559,26.8951847 46.706473,27.5990676 46.706473,28.4670586 L46.706473,42.7576216 L34.7547613,42.7576216 L34.7547613,29.2875991 C34.7547613,28.4196081 34.0508784,27.7157252 33.1828874,27.7157252 L19.8620541,27.7157252 C18.9939595,27.7157252 18.2901802,28.4196081 18.2901802,29.2875991 L18.2901802,35.103491 C18.2901802,35.971482 18.9938559,36.6753649 19.8620541,36.6753649 C20.7302523,36.6753649 21.4339279,35.971482 21.4339279,35.103491 L21.4339279,30.859473 L31.6112207,30.859473 L31.6112207,42.7576216 L6.33836486,42.7576216 L6.33836486,22.5456982 C6.41275225,22.5481847 6.48693243,22.5513964 6.56183784,22.5513964 C8.55713964,22.5513964 10.3475135,21.6560541 11.552009,20.2462162 C12.7565045,21.6560541 14.5468784,22.5513964 16.5421802,22.5513964 C18.537482,22.5513964 20.3276486,21.6560541 21.5323514,20.2462162 C22.7368468,21.6560541 24.5272207,22.5513964 26.5225225,22.5513964 C28.5178243,22.5513964 30.3081982,21.6560541 31.5126937,20.2462162 C32.7171892,21.6560541 34.5075631,22.5513964 36.5027613,22.5513964 C38.4980631,22.5513964 40.2884369,21.6560541 41.4929324,20.2462162 C42.6974279,21.6560541 44.4878018,22.5513964 46.483,22.5513964 C50.1014595,22.5513964 53.045045,19.6076036 53.045045,15.9895586 L53.045045,5.49637838 C53.045045,2.52005405 50.6237252,0.0988378378 47.6474009,0.0988378378 Z M49.9012973,15.9895586 C49.9012973,17.8744189 48.3677568,19.4077523 46.483,19.4077523 C44.5982432,19.4077523 43.0648063,17.8744189 43.0648063,15.9895586 L43.0648063,11.4218829 C43.0648063,10.5538919 42.3609234,9.85000901 41.4929324,9.85000901 C40.6249414,9.85000901 39.9210586,10.5538919 39.9210586,11.4218829 L39.9210586,15.9895586 C39.9210586,17.8744189 38.387518,19.4077523 36.5027613,19.4077523 C34.6179009,19.4077523 33.0845676,17.8744189 33.0845676,15.9895586 L33.0845676,8.42732432 C33.0845676,7.55933333 32.3806847,6.85545045 31.5126937,6.85545045 C30.6447027,6.85545045 29.9408198,7.55933333 29.9408198,8.42732432 L29.9408198,15.9893514 C29.9408198,17.8742117 28.4072793,19.407545 26.5225225,19.407545 C24.6377658,19.407545 23.1042252,17.8742117 23.1042252,15.9893514 L23.1042252,11.4218829 C23.1042252,10.5538919 22.4005495,9.85000901 21.5323514,9.85000901 C20.6641532,9.85000901 19.9604775,10.5538919 19.9604775,11.4218829 L19.9604775,15.9895586 C19.9604775,17.8744189 18.4271441,19.4077523 16.5421802,19.4077523 C14.6572162,19.4077523 13.1238829,17.8744189 13.1238829,15.9895586 L13.1238829,8.42732432 C13.1238829,7.55933333 12.4202072,6.85545045 11.552009,6.85545045 C10.6838108,6.85545045 9.98013514,7.55933333 9.98013514,8.42732432 L9.98013514,15.9893514 C9.98013514,17.8742117 8.44659459,19.407545 6.56183784,19.407545 C4.67708108,19.407545 3.14364414,17.8743153 3.14364414,15.9895586 L3.14364414,5.49637838 C3.14364414,4.25365315 4.15481532,3.24248198 5.39754054,3.24248198 L47.6474009,3.24248198 C48.8901261,3.24248198 49.9012973,4.25365315 49.9012973,5.49637838 L49.9012973,15.9895586 Z" id="Shape" fill="#474A4A"></path>
        </g>
    </g>
</svg>