<?xml version="1.0" encoding="UTF-8"?>
<svg width="8px" height="16px" viewBox="0 0 8 16" version="1.1" xmlns="http://www.w3.org/2000/svg" xmlns:xlink="http://www.w3.org/1999/xlink">
    <!-- Generator: Sketch 48.2 (47327) - http://www.bohemiancoding.com/sketch -->
    <title>Group</title>
    <desc>Created with Sketch.</desc>
    <defs></defs>
    <g id="Trends-Top-Mobile-Copy" stroke="none" stroke-width="1" fill="none" fill-rule="evenodd" transform="translate(-240.000000, -1524.000000)">
        <g id="Group-22" transform="translate(167.000000, 1524.000000)" fill="#000000" fill-rule="nonzero">
            <g id="Group-21" transform="translate(73.000000, 0.000000)">
                <g id="Group">
                    <circle id="Oval" cx="3.95454434" cy="2.03542508" r="1.99319878"></circle>
                    <path d="M7.8738104,9.15924159 L6.17311315,5.01651376 C6.07584098,4.80748624 5.9897737,4.52736391 5.59016514,4.52736391 C5.44254434,4.52736391 5.29619572,4.52736391 5.12714373,4.52736391 L3.04587156,4.52736391 C2.87359021,4.52736391 2.78404893,4.52736391 2.57184098,4.52736391 C2.17325994,4.52736391 1.96530887,4.78708257 1.85125382,5.02101529 L0.0847461774,9.13242813 C-0.0834740061,9.47762691 0.0570519878,9.89465443 0.398434251,10.064 C0.740061162,10.2332966 1.15341896,10.0907645 1.32163914,9.74546789 L1.45458104,9.47288073 C1.45458104,9.47288073 1.49587768,9.39933945 1.48036697,9.48066055 C1.38422018,9.98698471 1.11872783,11.5100183 1.11872783,11.5100183 C1.05423853,11.8269358 1.26595719,12.086263 1.58938226,12.086263 C1.58938226,12.086263 2.16636086,12.086263 2.35865443,12.086263 C2.41370031,12.086263 2.40391437,12.1277554 2.40391437,12.1277554 L2.40391437,15.1890887 C2.40391437,15.7018226 2.72322936,15.9706422 3.11730887,15.9706422 C3.51124159,15.9706422 3.83075229,15.7018226 3.83075229,15.1890887 L3.83075229,12.1155229 C3.83075229,12.1155229 3.82913761,12.0851865 3.86123547,12.086263 C3.9026789,12.0875841 4.0075841,12.0864587 4.0546055,12.0864587 C4.08141896,12.0864587 4.07804281,12.1187523 4.07804281,12.1187523 L4.07804281,15.1890887 C4.07804281,15.7018226 4.39755352,15.9706422 4.79163303,15.9706422 C5.18556575,15.9706422 5.50502752,15.7018226 5.50502752,15.1890887 L5.50502752,12.1359266 C5.50502752,12.1359266 5.50033028,12.086263 5.55943731,12.086263 C5.76636086,12.086263 6.38693578,12.086263 6.38693578,12.086263 C6.71031193,12.086263 6.92726606,11.8259572 6.8689419,11.5078165 C6.8689419,11.5078165 6.60286239,9.87429969 6.5319633,9.4292844 C6.51165749,9.30172477 6.72357187,9.75466667 6.72357187,9.75466667 C6.88562691,10.1028012 7.19858104,10.2481713 7.5430948,10.0850887 C7.88790214,9.92195719 8.03586544,9.50752294 7.8738104,9.15924159 Z" id="Shape"></path>
                </g>
            </g>
        </g>
    </g>
</svg>