<?xml version="1.0" encoding="UTF-8"?>
<svg width="51px" height="34px" viewBox="0 0 51 34" version="1.1" xmlns="http://www.w3.org/2000/svg" xmlns:xlink="http://www.w3.org/1999/xlink">
    <!-- Generator: Sketch 48.2 (47327) - http://www.bohemiancoding.com/sketch -->
    <title>icon-eyeeye</title>
    <desc>Created with Sketch.</desc>
    <defs></defs>
    <g id="Trends-Top-Copy" stroke="none" stroke-width="1" fill="none" fill-rule="evenodd" transform="translate(-264.000000, -332.000000)">
        <g id="eye" transform="translate(264.000000, 332.000000)" fill-rule="nonzero">
            <g id="Group" fill="#474A4A">
                <path d="M40.7575491,18.3067399 C40.0358844,18.3067399 39.450711,17.7215665 39.450711,16.9999017 C39.450711,9.11779769 33.0382717,2.70516185 25.1559711,2.70516185 C24.4342081,2.70516185 23.8491329,2.11998844 23.8491329,1.3983237 C23.8491329,0.67665896 24.4342081,0.0914855491 25.1559711,0.0914855491 C34.4792428,0.0914855491 42.064289,7.67653179 42.064289,16.9998035 C42.0643873,17.7216647 41.4792139,18.3067399 40.7575491,18.3067399 Z" id="Shape"></path>
                <path d="M25.1559711,33.9083179 C15.8326994,33.9083179 8.24765318,26.3232717 8.24765318,17 C8.24765318,16.2783353 8.83272832,15.6931618 9.55449133,15.6931618 C10.2762543,15.6931618 10.8613295,16.2783353 10.8613295,17 C10.8613295,24.882104 17.2739653,31.2947399 25.1560694,31.2947399 C25.8777341,31.2947399 26.4629075,31.8799133 26.4629075,32.601578 C26.4628092,33.3231445 25.8777341,33.9083179 25.1559711,33.9083179 Z" id="Shape"></path>
                <path d="M25.1559711,33.9127399 C18.5399249,33.9127399 12.1140231,31.0878902 6.57280925,25.7435029 C2.43109827,21.748896 0.250381503,17.7921214 0.159583815,17.625659 C-0.0531618497,17.2357399 -0.0531618497,16.7641618 0.159583815,16.3742428 C0.250381503,16.2077803 2.43109827,12.2509075 6.57280925,8.25639884 C12.1139249,2.91201156 18.5399249,0.0871618497 25.1559711,0.0871618497 C31.7720173,0.0871618497 38.1979191,2.91201156 43.7391329,8.25639884 C47.8807457,12.2510058 50.0615607,16.2077803 50.1523584,16.3742428 C50.365104,16.7641618 50.365104,17.2357399 50.1523584,17.625659 C50.0615607,17.7921214 47.8807457,21.7489942 43.7391329,25.7435029 C38.1980173,31.0878902 31.7721156,33.9127399 25.1559711,33.9127399 Z M2.8260289,17.0004913 C3.58709827,18.2313699 5.50230058,21.0922832 8.44241618,23.9151676 C13.5451676,28.8148035 19.1684335,31.2991618 25.1561676,31.2991618 C37.837578,31.2991618 45.7311792,19.8313353 47.4863064,16.9995087 C46.725237,15.7686301 44.8100347,12.9077168 41.8698208,10.0848324 C36.7671676,5.18519653 31.1438035,2.70083815 25.1560694,2.70083815 C12.4745607,2.70073988 4.58095954,14.1685665 2.8260289,17.0004913 Z" id="Shape"></path>
            </g>
            <path d="M25.5433002,9 C22.2484546,9 19.3958111,10.783799 18,13.385045 L21.9311238,16.9999522 L18,20.6148594 C19.3958111,23.2162966 22.2484546,25 25.5433002,25 C30.2138523,25 34,21.4182571 34,16.9998566 C34,12.5814562 30.2138523,9 25.5433002,9 Z" id="Shape" fill="#E6877F"></path>
            <path d="M25.5602293,26 C21.9863648,26 18.7600093,24.0051028 17.1402142,20.7936807 C16.883694,20.2851142 16.9857766,19.6677439 17.3921607,19.2702335 L20.2241017,16.5 L17.3921607,13.7296686 C16.9857766,13.3320602 16.883694,12.71469 17.1402142,12.2062213 C18.7600093,8.9949951 21.9863648,7 25.5602293,7 C30.765372,7 35,11.2617545 35,16.4998041 C35,21.7378537 30.765372,26 25.5602293,26 Z M19.9265148,20.4237874 C21.1967573,22.2768775 23.2812277,23.3950776 25.5603266,23.3950776 C29.338259,23.3950776 32.4118312,20.3020566 32.4118312,16.5 C32.4118312,12.6979434 29.3383563,9.60492243 25.5603266,9.60492243 C23.2814223,9.60492243 21.1967573,10.7231225 19.9265148,12.5761146 L22.9829596,15.5660121 C23.2336411,15.8112365 23.3751359,16.1482243 23.3751359,16.5 C23.3751359,16.8517757 23.2336411,17.1886655 22.9829596,17.4339879 L19.9265148,20.4237874 Z" id="Shape" fill="#474A4A"></path>
        </g>
    </g>
</svg>