<svg width="47" height="46" viewBox="0 0 47 46" xmlns="http://www.w3.org/2000/svg"><title>computer</title><g fill="none"><path fill="#E6877F" d="M7.273 7.336h32v22.457h-32z"/><g fill="#474A4A"><path d="M39.273 31.246h-32a1.454 1.454 0 0 1-1.455-1.454V7.335c0-.803.651-1.454 1.455-1.454h32c.803 0 1.454.651 1.454 1.454v22.457c0 .803-.65 1.454-1.454 1.454zM8.727 28.337h29.091V8.79H8.728v19.547zm16.655 7.127h-4.218a1.454 1.454 0 1 1 0-2.909h4.218a1.454 1.454 0 1 1 0 2.91z"/><path d="M45.09 8.216c.804 0 1.455-.651 1.455-1.454V1.517c0-.803-.65-1.454-1.454-1.454H1.455C.65.063 0 .713 0 1.517v37.435c0 .804.651 1.455 1.455 1.455h14.229v2.621h-3.248a1.454 1.454 0 1 0 0 2.91H34.11a1.454 1.454 0 1 0 0-2.91h-3.247v-2.621H45.09c.803 0 1.454-.651 1.454-1.455v-24.24a1.454 1.454 0 1 0-2.909 0v22.786H29.407c-.803 0-1.455.65-1.455 1.454v4.076h-9.359v-2.621h3.515a1.454 1.454 0 1 0 0-2.91H2.91V2.973h40.727v3.79c0 .803.652 1.454 1.455 1.454z"/></g></g></svg>