<svg width="93" height="104" viewBox="0 0 93 104" xmlns="http://www.w3.org/2000/svg" xmlns:xlink="http://www.w3.org/1999/xlink"><title>Group 26</title><defs><path d="M52.25 19.249a2.75 2.75 0 0 1 2.75 2.75c0 1.52-1.23 2.75-2.75 2.75h-27.5C23.23 24.75 22 23.52 22 22s1.23-2.75 2.75-2.75h27.5zm1.59 8.25H23.157C9.534 37.436 0 58.496 0 71.871c0 17.988 17.236 16.07 38.5 16.07 21.263 0 38.5 1.918 38.5-16.07 0-13.375-9.534-34.435-23.16-44.372zm-30.683-11H53.84S66 5.89 60.5 1.25c-5.5-4.64-17.703 5.156-22 4.813-4.297.344-16.5-9.453-22-4.813s6.657 15.25 6.657 15.25z" id="b"/><filter x="-16.9%" y="-12.5%" width="133.8%" height="129.5%" filterUnits="objectBoundingBox" id="a"><feOffset dy="2" in="SourceAlpha" result="shadowOffsetOuter1"/><feGaussianBlur stdDeviation="4" in="shadowOffsetOuter1" result="shadowBlurOuter1"/><feColorMatrix values="0 0 0 0 0 0 0 0 0 0 0 0 0 0 0 0 0 0 0.432291667 0" in="shadowBlurOuter1"/></filter></defs><g fill="none" fill-rule="evenodd"><g transform="translate(8 6)" fill-rule="nonzero"><use fill="#000" filter="url(#a)" xlink:href="#b"/><use fill="#EEE" fill-rule="evenodd" xlink:href="#b"/></g><path d="M47.346 44C36.662 44 28 52.345 28 62.638c0 10.293 8.662 18.638 19.346 18.638S66.69 72.93 66.69 62.638C66.691 52.345 58.03 44 47.346 44z" fill="#CF1807"/><path d="M54.097 72.08c-.581.253-1.186.467-1.807.629-2.357.628-4.713.651-7.062-.085-2.834-.882-4.713-2.746-5.836-5.353-.214-.507-.358-1.036-.525-1.565h-2.221a.656.656 0 0 1-.669-.644V63.62c0-.36.303-.645.669-.645h1.839v-1.173h-1.84a.656.656 0 0 1-.668-.644v-1.442c0-.36.303-.645.669-.645h2.34l.08-.222c.629-1.925 1.712-3.574 3.376-4.817 1.321-.99 2.85-1.534 4.49-1.787 2.332-.36 4.593-.054 6.783.775.143.054.278.115.414.192.525.299.66.675.43 1.22-.247.567-.494 1.142-.765 1.702-.23.483-.549.636-1.09.521-.74-.16-1.465-.383-2.206-.529-1.56-.307-3.112-.322-4.633.253-1.306.499-2.102 1.458-2.643 2.654-.008.015-.008.03-.008.046h4.546c.374 0 .668.292.668.644v1.442c0 .36-.302.645-.668.645h-5.191c-.008.383 0 .767 0 1.173h5.199c.374 0 .668.292.668.644v1.442c0 .36-.302.645-.668.645h-4.745c.573 1.58 1.504 2.8 3.256 3.328 1.401.422 2.81.4 4.227.115.733-.145 1.45-.36 2.182-.521.573-.123.883.023 1.122.529.27.568.526 1.143.765 1.726.222.521.08.943-.478 1.189z" fill="#FFF"/></g></svg>