<svg width="8" height="16" viewBox="0 0 8 16" xmlns="http://www.w3.org/2000/svg"><title>Group</title><circle cx="3.955" cy="2.035" r="1.993"/><path d="M7.874 9.16l-1.7-4.143c-.098-.21-.184-.49-.584-.49H2.572c-.399 0-.607.26-.72.494L.084 9.132a.699.699 0 0 0 .313.932c.342.17.755.027.924-.319l.133-.272s.04-.074.025.008c-.096.506-.361 2.029-.361 2.029a.462.462 0 0 0 .47.576h.77c.055 0 .045.042.045.042v3.061c0 .513.32.782.713.782.394 0 .714-.27.714-.782v-3.073s-.002-.03.03-.03c.042.002.147 0 .194 0 .026 0 .023.033.023.033v3.07c0 .513.32.782.714.782.394 0 .713-.27.713-.782v-3.053s-.005-.05.054-.05h.828c.323 0 .54-.26.482-.578 0 0-.266-1.634-.337-2.079-.02-.127.192.326.192.326.162.348.475.493.82.33a.698.698 0 0 0 .33-.926z"/></svg>