<svg width="51" height="34" viewBox="0 0 51 34" xmlns="http://www.w3.org/2000/svg"><title>icon-eyeeye</title><g fill="none"><g fill="#474A4A"><path d="M40.758 18.307A1.307 1.307 0 0 1 39.45 17c0-7.882-6.413-14.295-14.295-14.295a1.307 1.307 0 0 1 0-2.614C34.479.091 42.064 7.677 42.064 17c0 .722-.585 1.307-1.306 1.307zM25.156 33.908c-9.323 0-16.908-7.585-16.908-16.908a1.307 1.307 0 0 1 2.613 0c0 7.882 6.413 14.295 14.295 14.295a1.307 1.307 0 0 1 0 2.613z"/><path d="M25.156 33.913c-6.616 0-13.042-2.825-18.583-8.17C2.43 21.75.25 17.794.16 17.627a1.307 1.307 0 0 1 0-1.252c.09-.166 2.271-4.123 6.413-8.118C12.113 2.912 18.54.087 25.156.087c6.616 0 13.042 2.825 18.583 8.17 4.142 3.994 6.323 7.95 6.413 8.117.213.39.213.862 0 1.252-.09.166-2.271 4.123-6.413 8.118-5.541 5.344-11.967 8.169-18.583 8.169zM2.826 17c.761 1.231 2.676 4.092 5.616 6.915 5.103 4.9 10.726 7.384 16.714 7.384 12.682 0 20.575-11.468 22.33-14.3-.76-1.23-2.676-4.091-5.616-6.914C36.767 5.185 31.144 2.7 25.156 2.7 12.475 2.7 4.581 14.169 2.826 17z"/></g><path d="M25.543 9c-3.295 0-6.147 1.784-7.543 4.385L21.931 17 18 20.615C19.396 23.216 22.248 25 25.543 25 30.213 25 34 21.418 34 17c0-4.419-3.786-8-8.457-8z" fill="#E6877F"/><path d="M25.56 26c-3.574 0-6.8-1.995-8.42-5.206a1.309 1.309 0 0 1 .252-1.524l2.832-2.77-2.832-2.77a1.309 1.309 0 0 1-.252-1.524C18.76 8.995 21.986 7 25.56 7 30.765 7 35 11.262 35 16.5S30.765 26 25.56 26zm-5.633-5.576a6.805 6.805 0 0 0 5.633 2.971c3.778 0 6.852-3.093 6.852-6.895 0-3.802-3.074-6.895-6.852-6.895a6.806 6.806 0 0 0-5.633 2.971l3.056 2.99a1.307 1.307 0 0 1 0 1.868l-3.056 2.99z" fill="#474A4A"/></g></svg>