<svg width="54" height="46" viewBox="0 0 54 46" xmlns="http://www.w3.org/2000/svg"><title>euro</title><g fill="none"><path fill="#E6877F" d="M1.59 1.651h36.985v8.781H1.59z"/><path d="M38.575 12.022H1.59A1.59 1.59 0 0 1 0 10.432v-8.78C0 .773.712.06 1.59.06h36.985c.878 0 1.59.712 1.59 1.59v8.782a1.59 1.59 0 0 1-1.59 1.59zM3.179 8.843h33.806V3.24H3.18v5.603z" fill="#474A4A"/><path d="M25.165 32.285H1.59v8.781h28.272a13.652 13.652 0 0 1-4.697-8.781z" fill="#E6877F"/><g fill="#474A4A"><path d="M52.429 29.079a1.59 1.59 0 0 0-1.59 1.59c0 6.666-5.424 12.09-12.09 12.09a12.042 12.042 0 0 1-8.078-3.103l-.074-.065c-.124-.114-.246-.23-.365-.349l-.044-.043a11.9 11.9 0 0 1-.38-.398l-.01-.01a12.109 12.109 0 0 1-2.403-3.961c-.044-.12-.084-.243-.124-.365l-.056-.164a11.992 11.992 0 0 1-.15-.517l-.005-.02c-.143-.544-.249-1.1-.316-1.665v-.002a12.252 12.252 0 0 1-.087-1.429c0-6.667 5.424-12.091 12.091-12.091 3.08 0 6.013 1.158 8.26 3.261a1.59 1.59 0 0 0 2.173-2.32 15.234 15.234 0 0 0-10.355-4.14H1.59A1.59 1.59 0 0 0 0 16.968v8.781c0 .878.712 1.59 1.59 1.59h16.243a1.59 1.59 0 0 0 0-3.18H3.179v-5.602h26.28c-3.635 2.794-5.982 7.183-5.982 12.111v.027H1.59A1.59 1.59 0 0 0 0 32.285v8.781c0 .878.712 1.59 1.59 1.59h27.709a15.196 15.196 0 0 0 9.449 3.282c8.42 0 15.27-6.85 15.27-15.27a1.59 1.59 0 0 0-1.59-1.59zM3.179 39.477v-5.603h20.638a15.141 15.141 0 0 0 .709 2.354l.024.063a15.183 15.183 0 0 0 1.725 3.186H3.179z"/><path d="M44.64 32.171a.318.318 0 0 0-.234-.104H42.98a.318.318 0 0 0-.313.262c-.15.834-.357 1.472-.635 1.952-.504.888-1.222 1.32-2.195 1.32-1.067 0-1.842-.411-2.372-1.26a4.993 4.993 0 0 1-.624-1.495h4.187a.32.32 0 0 0 .305-.226l.376-1.249a.318.318 0 0 0-.304-.41h-4.777v-.12c0-.232.004-.44.012-.626h4.397a.318.318 0 0 0 .305-.228l.368-1.248a.318.318 0 0 0-.305-.408H36.92c.15-.561.358-1.02.63-1.396.6-.812 1.362-1.207 2.329-1.207.794 0 1.385.207 1.808.637.433.426.728 1.032.877 1.802.029.149.16.257.312.257h1.436a.318.318 0 0 0 .31-.39c-.102-1.14-.551-2.172-1.337-3.065-.816-.927-1.967-1.396-3.422-1.396-1.708 0-3.066.714-4.037 2.12-.524.755-.9 1.64-1.118 2.638h-1.595a.318.318 0 0 0-.305.228l-.369 1.249a.318.318 0 0 0 .305.408h1.752a8.834 8.834 0 0 0 .002.746h-1.385a.318.318 0 0 0-.305.227l-.368 1.241a.318.318 0 0 0 .305.409h1.936c.254 1.458.79 2.624 1.59 3.466.91.968 2.051 1.46 3.391 1.46 1.556 0 2.809-.599 3.723-1.777.753-.966 1.203-2.168 1.337-3.572a.32.32 0 0 0-.081-.245z"/></g></g></svg>