<svg width="48" height="46" viewBox="0 0 48 46" xmlns="http://www.w3.org/2000/svg"><title>map</title><g fill="none"><path d="M31.323 42.958c-.82 0-1.484-.665-1.484-1.484V3.369l-5.645 1.129a1.484 1.484 0 1 1-.582-2.91l7.42-1.485a1.484 1.484 0 0 1 1.775 1.455v39.915c0 .82-.665 1.485-1.484 1.485zm-14.839 2.968A1.483 1.483 0 0 1 15 44.442V4.527a1.484 1.484 0 0 1 2.968 0v38.105l5.644-1.13a1.484 1.484 0 0 1 .582 2.911l-7.42 1.484a1.42 1.42 0 0 1-.29.029z" fill="#474A4A"/><path fill="#E6877F" d="M46 4.976L31 2v40.024L46 45z"/><path d="M46.5 46c-.098 0-.197-.01-.294-.029l-15-2.978A1.491 1.491 0 0 1 30 41.533V1.49c0-.446.201-.869.549-1.152A1.508 1.508 0 0 1 31.794.03l15 2.978c.701.139 1.206.75 1.206 1.46V44.51c0 .447-.201.869-.549 1.152-.27.22-.607.337-.951.337zM33 40.313l12 2.382V5.687L33 3.305v37.008z" fill="#474A4A"/><path fill="#E6877F" d="M16 4.976L1 2v40.024L16 45z"/><path d="M16.5 46c-.098 0-.197-.01-.294-.029l-15-2.978A1.492 1.492 0 0 1 0 41.533V1.49C0 1.043.201.62.549.337A1.508 1.508 0 0 1 1.794.03l15 2.978c.701.139 1.206.75 1.206 1.46V44.51c0 .447-.201.869-.549 1.152-.27.22-.607.337-.951.337zM3 40.313l12 2.382V5.687L3 3.305v37.008z" fill="#474A4A"/></g></svg>