<svg width="39" height="46" viewBox="0 0 39 46" xmlns="http://www.w3.org/2000/svg"><title>usericon</title><g fill="none"><path d="M31.965 26.026L28.88 31.37l-3.084-5.343a8.884 8.884 0 0 0-5.548 8.233v10.508h17.265V34.259a8.884 8.884 0 0 0-5.548-8.233z" fill="#E6877F"/><path d="M37.513 46H20.248a1.233 1.233 0 0 1-1.234-1.233V34.259c0-4.14 2.48-7.82 6.318-9.376a1.233 1.233 0 0 1 1.532.527l2.016 3.493 2.017-3.493a1.233 1.233 0 0 1 1.532-.527 10.077 10.077 0 0 1 6.317 9.376v10.508c0 .68-.552 1.233-1.233 1.233zm-16.032-2.467H36.28V34.26c0-2.77-1.47-5.269-3.82-6.623l-2.512 4.35a1.233 1.233 0 0 1-2.136 0l-2.511-4.35a7.616 7.616 0 0 0-3.82 6.623v9.274zm7.399-19.178c-3.69 0-6.882-2.5-7.764-6.08a1.234 1.234 0 0 1 2.395-.59 5.516 5.516 0 0 0 5.37 4.203c3.049 0 5.53-2.48 5.53-5.53 0-3.05-2.481-5.53-5.53-5.53a5.51 5.51 0 0 0-2.97.865 1.233 1.233 0 0 1-1.326-2.08A7.972 7.972 0 0 1 28.88 8.36c4.41 0 7.998 3.588 7.998 7.998s-3.588 7.997-7.998 7.997zM11.984 19.21c-5.296 0-9.605-4.309-9.605-9.605S6.688 0 11.984 0s9.605 4.309 9.605 9.605-4.309 9.605-9.605 9.605zm0-16.743a7.146 7.146 0 0 0-7.138 7.138 7.146 7.146 0 0 0 7.138 7.138 7.146 7.146 0 0 0 7.138-7.138 7.146 7.146 0 0 0-7.138-7.138z" fill="#474A4A"/><path d="M15.802 21.572l-3.818 6.613-3.818-6.613c-4.026 1.632-6.867 5.578-6.867 10.19v13.004h21.37V31.762c0-4.612-2.841-8.558-6.867-10.19z" fill="#E6877F"/><path d="M22.669 46H1.299a1.233 1.233 0 0 1-1.233-1.233V31.762a12.18 12.18 0 0 1 7.636-11.333 1.233 1.233 0 0 1 1.532.526l2.75 4.763 2.75-4.763a1.233 1.233 0 0 1 1.531-.526 12.18 12.18 0 0 1 7.637 11.333v13.005c0 .68-.552 1.233-1.233 1.233zM2.533 43.533h18.902V31.762a9.717 9.717 0 0 0-5.13-8.594l-3.253 5.634a1.233 1.233 0 0 1-2.136 0l-3.253-5.634a9.717 9.717 0 0 0-5.13 8.594v11.771z" fill="#474A4A"/></g></svg>