<svg width="8" height="16" viewBox="0 0 8 16" xmlns="http://www.w3.org/2000/svg"><title>toilet</title><g fill="#CF1807"><path d="M6.235 4.968c-.119-.32-.44-.501-.767-.501-.164 0-.179.004-.276.004H2.273c-.374 0-.649.177-.768.497L.094 9.261a.703.703 0 0 0 .405.902.692.692 0 0 0 .893-.41l.376-1.01s.027-.102.027.343v5.959c0 .52.418.943.934.943a.939.939 0 0 0 .934-.943v-3.893s-.005-.035.031-.035h.351c.035 0 .033.035.033.035v3.893c0 .52.418.943.934.943a.939.939 0 0 0 .934-.943v-5.96c0-.451.04-.309.04-.309l.362.977a.692.692 0 0 0 .893.41.703.703 0 0 0 .406-.902L6.235 4.968z"/><ellipse cx="3.889" cy="2.01" rx="2.005" ry="1.985"/></g></svg>