<svg width="54" height="46" viewBox="0 0 54 46" xmlns="http://www.w3.org/2000/svg"><title>store</title><g fill="none"><path d="M47.647 1.67H5.398a3.826 3.826 0 0 0-3.826 3.826V15.99a4.99 4.99 0 1 0 9.98 0 4.99 4.99 0 1 0 9.98 0 4.99 4.99 0 0 0 9.98 0 4.99 4.99 0 0 0 9.981 0 4.99 4.99 0 0 0 9.98 0V5.497a3.826 3.826 0 0 0-3.826-3.826z" fill="#E6877F"/><path d="M47.647.099H5.397A5.404 5.404 0 0 0 0 5.496V15.99a6.564 6.564 0 0 0 3.195 5.63v22.71c0 .868.703 1.572 1.571 1.572h43.512c.868 0 1.572-.704 1.572-1.572V28.467a1.572 1.572 0 0 0-3.144 0v14.29H34.755v-13.47c0-.867-.704-1.571-1.572-1.571h-13.32c-.869 0-1.573.704-1.573 1.572v5.815a1.572 1.572 0 0 0 3.144 0V30.86H31.61v11.899H6.338V22.546c.075.002.149.005.224.005a6.55 6.55 0 0 0 4.99-2.305 6.55 6.55 0 0 0 9.98 0 6.55 6.55 0 0 0 9.98 0 6.55 6.55 0 0 0 9.98 0 6.55 6.55 0 0 0 4.991 2.305 6.57 6.57 0 0 0 6.562-6.561V5.496A5.404 5.404 0 0 0 47.647.1zm2.254 15.89a3.422 3.422 0 0 1-3.418 3.419 3.422 3.422 0 0 1-3.418-3.418v-4.568a1.572 1.572 0 0 0-3.144 0v4.568a3.422 3.422 0 0 1-3.418 3.418 3.422 3.422 0 0 1-3.418-3.418V8.427a1.572 1.572 0 0 0-3.144 0v7.562a3.422 3.422 0 0 1-3.418 3.419 3.422 3.422 0 0 1-3.419-3.419v-4.567a1.572 1.572 0 0 0-3.144 0v4.568a3.422 3.422 0 0 1-3.418 3.418 3.422 3.422 0 0 1-3.418-3.418V8.427a1.572 1.572 0 0 0-3.144 0v7.562a3.422 3.422 0 0 1-3.418 3.419 3.422 3.422 0 0 1-3.418-3.418V5.496a2.257 2.257 0 0 1 2.254-2.254h42.25A2.257 2.257 0 0 1 49.9 5.496V15.99z" fill="#474A4A"/></g></svg>